# xmcd
#
# Track frame offsets: 
#        150
#        15689
#        32295
#        49323
#        67787
#        79659
#        97292
#        113805
#        130797
#        150514
#        166703
#        188970
#        207323
#        220322
#        236928
#        251999
#        274307
#        296164
#        313685
#
# Disc length: 4414 seconds
#
# Revision: 0
# Processed by: cddbd v1.5.2PL0 Copyright (c) Steve Scherf et al.
# Submitted via: ExactAudioCopyFreeDBPlugin 1.0
#
DISCID=17113c13
DTITLE=Jan Blohm - Breten se Brief en die dekade daarna
DYEAR=2014
DGENRE=Afrikaans
TTITLE0=Breyten se Brief
TTITLE1=In Wens
TTITLE2=Groen Trui
TTITLE3=Rosie
TTITLE4=Baby Baby
TTITLE5=Vanoggend Van Gogh
TTITLE6=Harlekyne en Treine
TTITLE7=Roosmaryn Kaneel
TTITLE8=Sondaglover
TTITLE9='n Stille Runaway
TTITLE10=Maria Magdalena
TTITLE11=Chardonnay
TTITLE12=Boere Cinderella
TTITLE13=Waterdief
TTITLE14=Opgedra aan Dinsdag
TTITLE15=Rooiwyn en Mary Jane
TTITLE16=Mossie Bruin
TTITLE17=Ons Huisie
TTITLE18=Brand die Vure
EXTD=
EXTT0=
EXTT1=
EXTT2=
EXTT3=
EXTT4=
EXTT5=
EXTT6=
EXTT7=
EXTT8=
EXTT9=
EXTT10=
EXTT11=
EXTT12=
EXTT13=
EXTT14=
EXTT15=
EXTT16=
EXTT17=
EXTT18=
PLAYORDER=
